<svg width="37" height="37" viewBox="0 0 37 37" fill="none" xmlns="http://www.w3.org/2000/svg">
    <circle cx="18.5" cy="18.5" r="18.5" fill="url(#paint0_radial_144_1628)"/>
    <path d="M11 27L10.0061 26.8896L9.88274 28H11V27ZM11.4146 23.2683L10.6964 22.5725C10.5422 22.7317 10.4452 22.9376 10.4208 23.1579L11.4146 23.2683ZM24.2683 10L24.9754 9.29289C24.7859 9.10341 24.5283 8.99791 24.2604 9.00003C23.9924 9.00216 23.7365 9.11174 23.5501 9.3042L24.2683 10ZM28 13.7317L28.7182 14.4275C29.0982 14.0353 29.0933 13.4107 28.7071 13.0246L28 13.7317ZM15.1463 27V28C15.4171 28 15.6762 27.8902 15.8646 27.6958L15.1463 27ZM11.9939 27.1104L12.4085 23.3787L10.4208 23.1579L10.0061 26.8896L11.9939 27.1104ZM12.1329 23.9641L24.9865 10.6958L23.5501 9.3042L10.6964 22.5725L12.1329 23.9641ZM23.5612 10.7071L27.2929 14.4388L28.7071 13.0246L24.9754 9.29289L23.5612 10.7071ZM27.2818 13.0359L14.4281 26.3042L15.8646 27.6958L28.7182 14.4275L27.2818 13.0359ZM15.1463 26H11V28H15.1463V26Z" fill="white"/>
    <defs>
        <radialGradient id="paint0_radial_144_1628" cx="0" cy="0" r="1" gradientUnits="userSpaceOnUse" gradientTransform="translate(18.5 18.5) rotate(90) scale(18.5)">
            <stop offset="1" stop-color="#FF5151"/>
        </radialGradient>
    </defs>
</svg>
