<svg width="209" height="66" viewBox="0 0 209 66" fill="none" xmlns="http://www.w3.org/2000/svg">
<g clip-path="url(#clip0_1_189)">
<path d="M68.34 42.3C66.92 42.3 65.58 42.05 64.32 41.55C63.08 41.03 61.99 40.29 61.05 39.33L63.27 36.96C63.95 37.68 64.72 38.23 65.58 38.61C66.44 38.99 67.36 39.18 68.34 39.18C68.96 39.18 69.43 39.09 69.75 38.91C70.07 38.71 70.23 38.44 70.23 38.1C70.23 37.84 70.16 37.62 70.02 37.44C69.9 37.26 69.62 37.07 69.18 36.87C68.74 36.67 68.07 36.43 67.17 36.15C65.19 35.53 63.79 34.86 62.97 34.14C62.15 33.4 61.74 32.44 61.74 31.26C61.74 29.96 62.26 28.95 63.3 28.23C64.34 27.51 65.8 27.15 67.68 27.15C69.8 27.15 71.71 27.75 73.41 28.95L72.06 31.53C71.22 31.07 70.46 30.75 69.78 30.57C69.1 30.37 68.39 30.27 67.65 30.27C66.99 30.27 66.5 30.36 66.18 30.54C65.86 30.7 65.7 30.94 65.7 31.26C65.7 31.52 65.78 31.74 65.94 31.92C66.12 32.08 66.42 32.25 66.84 32.43C67.26 32.61 67.9 32.83 68.76 33.09C70.12 33.51 71.18 33.94 71.94 34.38C72.72 34.82 73.29 35.34 73.65 35.94C74.01 36.54 74.19 37.29 74.19 38.19C74.19 39.43 73.67 40.43 72.63 41.19C71.59 41.93 70.16 42.3 68.34 42.3ZM87.2044 42.3C86.8644 41.7 86.6144 41.08 86.4544 40.44C86.3144 39.78 86.2444 39.04 86.2444 38.22V33.39C86.2444 31.37 85.4044 30.36 83.7244 30.36C82.7244 30.36 81.9144 30.75 81.2944 31.53C80.6944 32.31 80.3944 33.3 80.3944 34.5V42H76.4344V19.98H80.3944V29.04C80.9744 28.46 81.6344 28 82.3744 27.66C83.1144 27.32 83.9044 27.15 84.7444 27.15C88.3844 27.15 90.2044 29.23 90.2044 33.39V38.13C90.2044 39.23 90.4044 40.18 90.8044 40.98L87.2044 42.3ZM99.3757 42.3C98.1357 42.3 97.0257 42.01 96.0457 41.43C95.0657 40.85 94.2957 40.01 93.7357 38.91C93.1757 37.81 92.8957 36.5 92.8957 34.98C92.8957 33.36 93.1757 31.96 93.7357 30.78C94.3157 29.6 95.1157 28.7 96.1357 28.08C97.1757 27.46 98.3857 27.15 99.7657 27.15C101.386 27.15 102.736 27.76 103.816 28.98V27.45H107.626V37.92C107.626 38.62 107.686 39.2 107.806 39.66C107.926 40.12 108.116 40.58 108.376 41.04L105.166 42.3C104.566 41.64 104.226 40.89 104.146 40.05H104.086C103.526 40.77 102.836 41.33 102.016 41.73C101.216 42.11 100.336 42.3 99.3757 42.3ZM100.186 39.15C101.346 39.15 102.226 38.78 102.826 38.04C103.426 37.28 103.726 36.27 103.726 35.01V34.47C103.726 33.31 103.426 32.33 102.826 31.53C102.246 30.71 101.406 30.3 100.306 30.3C99.1857 30.3 98.3257 30.7 97.7257 31.5C97.1457 32.3 96.8557 33.46 96.8557 34.98C96.8557 36.34 97.1357 37.38 97.6957 38.1C98.2757 38.8 99.1057 39.15 100.186 39.15ZM111.134 31.53C111.134 30.93 111.084 30.41 110.984 29.97C110.904 29.53 110.734 29.04 110.474 28.5L113.984 27.15C114.164 27.47 114.324 27.85 114.464 28.29C114.624 28.73 114.714 29.11 114.734 29.43C115.274 28.67 115.834 28.1 116.414 27.72C117.014 27.34 117.694 27.15 118.454 27.15C119.054 27.15 119.574 27.23 120.014 27.39C120.474 27.55 120.954 27.82 121.454 28.2L119.984 30.93C119.644 30.73 119.334 30.59 119.054 30.51C118.774 30.41 118.464 30.36 118.124 30.36C117.084 30.36 116.314 30.68 115.814 31.32C115.334 31.96 115.094 32.93 115.094 34.23V42H111.134V31.53ZM129.377 42.3C126.977 42.3 125.077 41.63 123.677 40.29C122.297 38.95 121.607 37.13 121.607 34.83C121.607 33.33 121.887 32 122.447 30.84C123.007 29.68 123.837 28.78 124.937 28.14C126.037 27.48 127.367 27.15 128.927 27.15C130.447 27.15 131.767 27.47 132.887 28.11C134.007 28.73 134.857 29.59 135.437 30.69C136.017 31.77 136.307 32.98 136.307 34.32C136.307 34.98 136.087 35.49 135.647 35.85C135.227 36.19 134.637 36.36 133.877 36.36H125.537C125.537 37.18 125.887 37.84 126.587 38.34C127.307 38.84 128.237 39.09 129.377 39.09C130.317 39.09 131.107 38.96 131.747 38.7C132.407 38.42 132.987 38.03 133.487 37.53L135.467 39.63C134.807 40.47 133.957 41.13 132.917 41.61C131.877 42.07 130.697 42.3 129.377 42.3ZM132.377 33.27C132.377 32.39 132.047 31.68 131.387 31.14C130.747 30.58 129.927 30.3 128.927 30.3C127.967 30.3 127.157 30.58 126.497 31.14C125.857 31.68 125.537 32.39 125.537 33.27H132.377ZM144.382 42.27C142.962 42.27 141.872 41.88 141.112 41.1C140.372 40.32 140.002 39.2 140.002 37.74V30.63H137.332L138.172 27.45H140.062V24.42L143.902 22.65V27.45H147.802L147.022 30.63H143.962V37.83C143.962 38.29 144.062 38.62 144.262 38.82C144.462 39.02 144.772 39.12 145.192 39.12C145.692 39.12 146.142 39.02 146.542 38.82L147.472 41.67C147.132 41.83 146.662 41.97 146.062 42.09C145.482 42.21 144.922 42.27 144.382 42.27ZM156.323 42.33C154.823 42.33 153.503 42.02 152.363 41.4C151.243 40.76 150.373 39.87 149.753 38.73C149.153 37.57 148.853 36.24 148.853 34.74C148.853 33.24 149.153 31.92 149.753 30.78C150.373 29.62 151.243 28.73 152.363 28.11C153.503 27.47 154.823 27.15 156.323 27.15C157.823 27.15 159.133 27.47 160.253 28.11C161.393 28.73 162.263 29.62 162.863 30.78C163.483 31.92 163.793 33.24 163.793 34.74C163.793 36.24 163.483 37.57 162.863 38.73C162.263 39.87 161.393 40.76 160.253 41.4C159.133 42.02 157.823 42.33 156.323 42.33ZM156.323 39.12C157.463 39.12 158.323 38.74 158.903 37.98C159.483 37.2 159.773 36.12 159.773 34.74C159.773 33.36 159.483 32.29 158.903 31.53C158.323 30.75 157.463 30.36 156.323 30.36C155.183 30.36 154.323 30.75 153.743 31.53C153.163 32.29 152.873 33.36 152.873 34.74C152.873 36.12 153.163 37.2 153.743 37.98C154.323 38.74 155.183 39.12 156.323 39.12ZM166.654 31.47C166.654 30.75 166.594 30.16 166.474 29.7C166.354 29.24 166.164 28.78 165.904 28.32L169.114 27.06C169.694 27.7 170.034 28.46 170.134 29.34C171.434 27.84 173.044 27.09 174.964 27.09C176.224 27.09 177.344 27.39 178.324 27.99C179.324 28.59 180.104 29.46 180.664 30.6C181.224 31.74 181.504 33.1 181.504 34.68C181.504 36.26 181.214 37.62 180.634 38.76C180.074 39.9 179.284 40.77 178.264 41.37C177.244 41.95 176.064 42.24 174.724 42.24C173.884 42.24 173.114 42.09 172.414 41.79C171.714 41.47 171.114 41.04 170.614 40.5V48.57H166.654V31.47ZM174.034 39.09C176.374 39.09 177.544 37.62 177.544 34.68C177.544 33.26 177.254 32.17 176.674 31.41C176.094 30.63 175.254 30.24 174.154 30.24C172.974 30.24 172.074 30.62 171.454 31.38C170.854 32.12 170.554 33.12 170.554 34.38V34.92C170.554 36.08 170.854 37.07 171.454 37.89C172.054 38.69 172.914 39.09 174.034 39.09ZM186.749 25.8C185.969 25.8 185.319 25.56 184.799 25.08C184.299 24.6 184.049 23.99 184.049 23.25C184.049 22.51 184.299 21.9 184.799 21.42C185.319 20.94 185.969 20.7 186.749 20.7C187.529 20.7 188.169 20.94 188.669 21.42C189.189 21.9 189.449 22.51 189.449 23.25C189.449 23.99 189.189 24.6 188.669 25.08C188.169 25.56 187.529 25.8 186.749 25.8ZM184.769 27.45H188.729V42H184.769V27.45ZM198.487 42.3C197.247 42.3 196.137 42.01 195.157 41.43C194.177 40.85 193.407 40.01 192.847 38.91C192.287 37.81 192.007 36.5 192.007 34.98C192.007 33.36 192.287 31.96 192.847 30.78C193.427 29.6 194.227 28.7 195.247 28.08C196.287 27.46 197.497 27.15 198.877 27.15C200.497 27.15 201.847 27.76 202.927 28.98V27.45H206.737V37.92C206.737 38.62 206.797 39.2 206.917 39.66C207.037 40.12 207.227 40.58 207.487 41.04L204.277 42.3C203.677 41.64 203.337 40.89 203.257 40.05H203.197C202.637 40.77 201.947 41.33 201.127 41.73C200.327 42.11 199.447 42.3 198.487 42.3ZM199.297 39.15C200.457 39.15 201.337 38.78 201.937 38.04C202.537 37.28 202.837 36.27 202.837 35.01V34.47C202.837 33.31 202.537 32.33 201.937 31.53C201.357 30.71 200.517 30.3 199.417 30.3C198.297 30.3 197.437 30.7 196.837 31.5C196.257 32.3 195.967 33.46 195.967 34.98C195.967 36.34 196.247 37.38 196.807 38.1C197.387 38.8 198.217 39.15 199.297 39.15Z" fill="url(#paint0_radial_1_189)"/>
<path fill-rule="evenodd" clip-rule="evenodd" d="M7.65832 32.3292C8.02881 31.5882 8.92982 31.2879 9.67078 31.6584L34.6708 44.1584C35.4118 44.5288 35.7121 45.4299 35.3416 46.1708C34.9711 46.9118 34.0701 47.2121 33.3291 46.8416L8.32914 34.3416C7.58817 33.9712 7.28784 33.0701 7.65832 32.3292Z" fill="#FF5553"/>
<path fill-rule="evenodd" clip-rule="evenodd" d="M35.3416 19.8292C35.7121 20.5701 35.4118 21.4712 34.6708 21.8416L9.67078 34.3416C8.92982 34.7121 8.02881 34.4118 7.65832 33.6708C7.28784 32.9299 7.58817 32.0288 8.32914 31.6584L33.3291 19.1584C34.0701 18.7879 34.9711 19.0882 35.3416 19.8292Z" fill="#FF5553"/>
<circle cx="34.5" cy="20.5" r="5.5" fill="#FF5352"/>
<circle cx="33.5" cy="45.5" r="5.5" fill="#FF5352"/>
<circle cx="8.5" cy="32.5" r="5.5" fill="#FF5352"/>
</g>
<defs>
<radialGradient id="paint0_radial_1_189" cx="0" cy="0" r="1" gradientUnits="userSpaceOnUse" gradientTransform="translate(181 35) rotate(90) scale(26 121)">
<stop offset="1" stop-color="#FF5151"/>
</radialGradient>
<clipPath id="clip0_1_189">
<rect width="209" height="66" fill="white"/>
</clipPath>
</defs>
</svg>
